<svg xmlns="http://www.w3.org/2000/svg" width="26" height="26" viewBox="0 0 26 26" fill="none">
  <path fill-rule="evenodd" clip-rule="evenodd" d="M13 25.5C6.09644 25.5 0.5 19.9036 0.5 13C0.5 6.09644 6.09644 0.5 13 0.5C16.3152 0.5 19.4946 1.81696 21.8388 4.16117C24.183 6.50537 25.5 9.68479 25.5 13C25.5 19.9036 19.9036 25.5 13 25.5ZM20.5 13C20.5 13.6904 19.9404 14.25 19.25 14.25H14.25V19.25C14.25 19.9404 13.6904 20.5 13 20.5C12.3096 20.5 11.75 19.9404 11.75 19.25V14.25H6.75C6.05964 14.25 5.5 13.6904 5.5 13C5.5 12.3096 6.05964 11.75 6.75 11.75H11.75V6.75C11.75 6.05964 12.3096 5.5 13 5.5C13.6904 5.5 14.25 6.05964 14.25 6.75V11.75H19.25C19.9404 11.75 20.5 12.3096 20.5 13ZM13 3C18.5228 3 23 7.47715 23 13C23 15.6522 21.9464 18.1957 20.0711 20.0711C18.1957 21.9464 15.6522 23 13 23C7.47715 23 3 18.5228 3 13C3 7.47715 7.47715 3 13 3Z" fill="white"/>
</svg>