<svg width="15" height="13" viewBox="0 0 15 13" fill="none" xmlns="http://www.w3.org/2000/svg">
<path d="M14.6054 0.333832C15.09 0.821379 15.09 1.60879 14.6054 2.09633L5.28039 12.0213C5.04264 12.2708 4.71247 12.411 4.36789 12.4088C4.02332 12.411 3.69315 12.2708 3.45539 12.0213L0.405394 8.73383C0.0603756 8.41757 -0.0790612 7.93507 0.0440721 7.48352C0.167205 7.03197 0.532276 6.68705 0.990079 6.58971C1.44788 6.49237 1.9217 6.65894 2.21789 7.02133L4.41789 9.35883L12.8304 0.408832C13.0549 0.162004 13.3689 0.0152024 13.7023 0.00111555C14.0356 -0.0129713 14.3608 0.106826 14.6054 0.333832Z" fill="black"/>
</svg>
