<svg xmlns="http://www.w3.org/2000/svg" width="26" height="20" viewBox="0 0 26 20" fill="none">
<path fill-rule="evenodd" clip-rule="evenodd" d="M24.8625 1.65C24.164 0.616584 22.9973 -0.00187502 21.75 4.27063e-06H4.25C2.17893 4.27063e-06 0.5 1.67894 0.5 3.75V16.25C0.5 18.3211 2.17893 20 4.25 20H21.75C23.8211 20 25.5 18.3211 25.5 16.25V3.75C25.5017 3.00209 25.2797 2.27077 24.8625 1.65ZM4.25 2.5H21.75C22.109 2.50046 22.4505 2.65527 22.6875 2.925L13 8.5875L3.325 2.9125C3.56132 2.65065 3.89728 2.50084 4.25 2.5ZM21.75 17.5C22.4404 17.5 23 16.9404 23 16.25V5.6125L14.25 10.7375C13.8702 10.9578 13.4391 11.0742 13 11.075C12.5621 11.078 12.131 10.966 11.75 10.75L3 5.6125V16.25C3 16.9404 3.55964 17.5 4.25 17.5H21.75Z" fill="white"/>
</svg>