<svg xmlns="http://www.w3.org/2000/svg" width="26" height="26" viewBox="0 0 26 26" fill="none">
<path fill-rule="evenodd" clip-rule="evenodd" d="M5.5 4.25V8C5.5 8.69036 6.05964 9.25 6.75 9.25C7.44036 9.25 8 8.69036 8 8V4.25C8 3.55964 8.55964 3 9.25 3L21.75 3C22.4404 3 23 3.55964 23 4.25L23 21.75C23 22.4404 22.4404 23 21.75 23H9.25C8.55964 23 8 22.4404 8 21.75V18C8 17.3096 7.44036 16.75 6.75 16.75C6.05964 16.75 5.5 17.3096 5.5 18V21.75C5.5 23.8211 7.17893 25.5 9.25 25.5L21.75 25.5C23.8211 25.5 25.5 23.8211 25.5 21.75L25.5 4.25C25.5 2.17893 23.8211 0.5 21.75 0.5L9.25 0.5C7.17893 0.5 5.5 2.17893 5.5 4.25ZM3.3625 16.3875L0.862499 13.8875C0.625858 13.6528 0.492752 13.3333 0.492752 13C0.492752 12.6667 0.625858 12.3472 0.862499 12.1125L3.3625 9.6125C3.59721 9.37586 3.9167 9.24275 4.25 9.24275C4.5833 9.24275 4.90279 9.37586 5.1375 9.6125C5.37414 9.84721 5.50725 10.1667 5.50725 10.5C5.50725 10.8333 5.37414 11.1528 5.1375 11.3875L4.7625 11.75H13C13.6904 11.75 14.25 12.3096 14.25 13C14.25 13.6904 13.6904 14.25 13 14.25H4.7625L5.1375 14.6125C5.62765 15.1027 5.62765 15.8973 5.1375 16.3875C4.64735 16.8777 3.85265 16.8777 3.3625 16.3875Z" fill="white"/>
</svg>