<svg width="15" height="15" viewBox="0 0 15 15" fill="none" xmlns="http://www.w3.org/2000/svg">
<path d="M13.5687 12.6813C13.687 12.7986 13.7536 12.9584 13.7536 13.125C13.7536 13.2917 13.687 13.4514 13.5687 13.5688C13.4514 13.6871 13.2916 13.7536 13.125 13.7536C12.9583 13.7536 12.7986 13.6871 12.6812 13.5688L7.49996 8.38126L2.31871 13.5688C2.20136 13.6871 2.04161 13.7536 1.87496 13.7536C1.70831 13.7536 1.54857 13.6871 1.43121 13.5688C1.31289 13.4514 1.24634 13.2917 1.24634 13.125C1.24634 12.9584 1.31289 12.7986 1.43121 12.6813L6.61871 7.50001L1.43121 2.31876C1.27268 2.16022 1.21076 1.92915 1.26879 1.71258C1.32682 1.49602 1.49597 1.32686 1.71254 1.26883C1.9291 1.21081 2.16018 1.27272 2.31871 1.43126L7.49996 6.61876L12.6812 1.43126C12.9263 1.18618 13.3236 1.18618 13.5687 1.43126C13.8138 1.67633 13.8138 2.07368 13.5687 2.31876L8.38121 7.50001L13.5687 12.6813Z" fill="#231F20" stroke="black"/>
</svg>
